Coordinates
version=1
nRows=14
nColumns=24
inDegrees=yes

Units are S.I. units (second, meters, Newtons, ...)
Angles are in degrees.

endheader
time	pelvis_tilt	pelvis_list	pelvis_rotation	pelvis_tx	pelvis_ty	pelvis_tz	hip_flexion_r	hip_adduction_r	hip_rotation_r	knee_angle_r	ankle_angle_r	subtalar_angle_r	mtp_angle_r	hip_flexion_l	hip_adduction_l	hip_rotation_l	knee_angle_l	ankle_angle_l	subtalar_angle_l	mtp_angle_l	lumbar_extension	lumbar_bending	lumbar_rotation
      2.62000000	     -6.40002238	      3.89130681	    360.81981391	     -0.22221751	      1.39381947	     -1.06020858	     27.39458419	     -2.10917917	      4.39755340	    -22.34817262	      1.33541923	    -11.35613296	     12.07359745	      3.83555141	      6.72395987	     -2.26253792	     -7.68372755	      5.19540054	     10.04030562	     17.19325144	      6.13316865	     -3.46717837	    104.96451391
      2.62500000	     -6.46337433	      3.94528006	    361.01533275	     -0.21729408	      1.39322779	     -1.06057254	     27.20264852	     -2.36657600	      4.39787467	    -20.42320894	      0.90604703	    -11.37725203	     11.77736591	      3.54454815	      6.81651750	     -2.03497994	     -7.60264640	      5.42249064	     10.06186248	     17.10372305	      6.23785235	     -3.51263927	    104.79926301
      2.63000000	     -6.49779654	      3.98837624	    361.22288224	     -0.21233828	      1.39265075	     -1.06095681	     26.94762746	     -2.62614871	      4.36585539	    -18.46764124	      0.46920650	    -11.37087595	     11.51723564	      3.21661886	      6.89712606	     -1.78477144	     -7.51621918	      5.64643048	     10.07175847	     17.01050981	      6.30822162	     -3.54741422	    104.60632122
      2.63500000	     -6.54827869	      4.02505331	    361.44843960	     -0.20730977	      1.39206092	     -1.06137126	     26.67475140	     -2.89474896	      4.29554982	    -16.48019951	      0.01628727	    -11.32988155	     11.32595755	      2.89965926	      6.97201411	     -1.50424282	     -7.42759621	      5.86129147	     10.05050989	     16.92040013	      6.41019132	     -3.57110736	    104.43969594
      2.64000000	     -6.56583121	      4.06013835	    361.68634799	     -0.20224998	      1.39147151	     -1.06180658	     26.33533072	     -3.17334904	      4.18387332	    -14.46824656	     -0.44519605	    -11.24830949	     11.21227461	      2.54119405	      7.04446405	     -1.20084125	     -7.33477801	      6.07499460	     10.01140125	     16.81774350	      6.47669808	     -3.58881381	    104.26118880
      2.64500000	     -6.54624616	      4.08984636	    361.94661498	     -0.19715125	      1.39090182	     -1.06225548	     25.92042960	     -3.45959390	      4.01082004	    -12.43187002	     -0.92259794	    -11.11784645	     11.18352058	      2.13701309	      7.10816118	     -0.86330857	     -7.23833832	      6.28415992	      9.96120979	     16.71344507	      6.50178357	     -3.60627610	    104.06032896
      2.65000000	     -6.51042316	      4.11799863	    362.22517706	     -0.19199397	      1.39032282	     -1.06271459	     25.45642251	     -3.75264916	      3.77796733	    -10.38367565	     -1.41026093	    -10.93530718	     11.27830422	      1.70808843	      7.16618682	     -0.50595014	     -7.13760947	      6.48538774	      9.92066787	     16.60577700	      6.52031383	     -3.61766833	    103.85424085
      2.65500000	     -6.47709029	      4.16845912	    362.51101300	     -0.18682368	      1.38969253	     -1.06313735	     24.98838387	     -4.06499170	      3.50023009	     -8.36998468	     -1.90404688	    -10.68837405	     11.42069707	      1.28240417	      7.24383129	     -0.12015253	     -7.04237846	      6.68066435	      9.82621027	     16.49171022	      6.54334853	     -3.65684815	    103.68785477
      2.66000000	     -6.43246215	      4.23348948	    362.80092760	     -0.18167485	      1.38901585	     -1.06350932	     24.51380611	     -4.38329293	      3.16932322	     -6.42104536	     -2.37033537	    -10.35493453	     11.61160321	      0.84838533	      7.32938275	      0.27072806	     -6.95698815	      6.88100817	      9.72801299	     16.38241442	      6.54530580	     -3.71705134	    103.51584099
      2.66500000	     -6.37666785	      4.32733637	    363.08747479	     -0.17657652	      1.38829000	     -1.06378858	     24.04797884	     -4.71299676	      2.79877185	     -4.56759168	     -2.78709188	     -9.93505269	     11.84237623	      0.41010966	      7.43546528	      0.66621758	     -6.88546000	      7.07875622	      9.62619321	     16.26517390	      6.52397775	     -3.82211657	    103.33994825
      2.67000000	     -6.32819268	      4.43293712	    363.36360112	     -0.17151232	      1.38752489	     -1.06398335	     23.61687230	     -5.03196951	      2.38815187	     -2.82866489	     -3.15755851	     -9.43110175	     12.07678813	     -0.01177030	      7.54590209	      1.05184499	     -6.83013847	      7.28586932	      9.50752135	     16.14430285	      6.50315035	     -3.93915708	    103.19475959
      2.67500000	     -6.28115898	      4.55019973	    363.62926337	     -0.16648545	      1.38672200	     -1.06406871	     23.22022905	     -5.33634433	      1.95022252	     -1.22256226	     -3.45187392	     -8.86886325	     12.33588305	     -0.42450456	      7.65678721	      1.42450299	     -6.78781880	      7.48645710	      9.42140650	     16.01585504	      6.47800085	     -4.07865047	    103.05615977
      2.68000000	     -6.21214215	      4.66103055	    363.88093582	     -0.16150202	      1.38592609	     -1.06406072	     22.83403489	     -5.60502015	      1.47919274	      0.24251841	     -3.68588577	     -8.26413245	     12.57733035	     -0.85498929	      7.74884422	      1.78515456	     -6.75171956	      7.69107730	      9.34281396	     15.88881565	      6.41297544	     -4.21114209	    102.93598942
      2.68500000	     -6.15774140	      4.78132962	    364.11211502	     -0.15656347	      1.38509446	     -1.06393450	     22.51291648	     -5.85099025	      0.99863617	      1.53716841	     -3.84468460	     -7.63695110	     12.80156389	     -1.25885352	      7.84166025	      2.11531950	     -6.73295271	      7.90075212	      9.27392939	     15.75673464	      6.36033194	     -4.36222602	    102.84113106
